<svg width="514" height="185" viewBox="0 0 514 185" fill="none" xmlns="http://www.w3.org/2000/svg">
<path fill-rule="evenodd" clip-rule="evenodd" d="M177.138 1.50551C163.079 4.90951 149.017 15.1185 143.485 25.9395C140.86 31.0765 138.529 39.1495 138.512 43.1705C138.502 45.5625 138.891 45.9205 141.5 45.9205C144.329 45.9205 144.5 45.6945 144.5 41.9585C144.5 35.3345 148.141 27.4225 154.201 20.8765C167.76 6.23151 193.117 0.907515 211.203 8.90751L215.5 10.8085V46.3645V81.9205H200H184.5V84.4205V86.9205H200H215.5V130.882V174.844L210.25 176.441C207.363 177.32 200.95 178.283 196 178.58C175.167 179.83 156.943 171.599 146.302 156.133C142.985 151.312 139.5 142.314 139.5 138.571C139.5 132.742 138.318 129.921 135.875 129.921C133.746 129.921 133.5 130.363 133.5 134.193C133.5 140.461 136.728 151.045 140.605 157.488C147.467 168.89 161.299 178.642 176 182.442C187.989 185.541 208.586 184.031 217.551 179.395L220.5 177.87V92.5315V7.19353L214.75 4.61552C211.587 3.19852 206.975 1.57252 204.5 1.00352C198.211 -0.441477 184.117 -0.183493 177.138 1.50551ZM304.5 1.49153C280.542 7.76153 262.8 27.0535 261.341 48.4205C261.02 53.1265 261.148 53.4375 263.522 53.7145C265.921 53.9945 266.098 53.6645 267.161 46.9105C270.132 28.0445 283.753 13.4185 304.052 7.29851C308.181 6.05351 313.211 5.51352 320.5 5.53352C332.566 5.56552 339.83 7.31851 349 12.4115C356.135 16.3745 364.838 24.5965 364.056 26.6345C363.757 27.4145 340.318 62.6725 311.969 104.987L260.425 181.921H263.766C267.079 181.921 267.547 181.264 319.277 104.034L371.447 26.1475L368.626 22.2535C361.656 12.6305 350.183 5.29252 336.734 1.85252C327.671 -0.465478 312.622 -0.633471 304.5 1.49153ZM79.5 91.9205V182.054L82.25 181.737L85 181.421V91.9205V2.42052L82.25 2.10451L79.5 1.78752V91.9205ZM89.961 3.17052C89.698 3.85852 89.6 44.2455 89.742 92.9205L90 181.421L92.75 181.737L95.5 182.054V91.9865V1.92052H92.969C91.576 1.92052 90.223 2.48352 89.961 3.17052ZM100.5 91.9205V181.921H110.5H120.5V178.921V175.921H113H105.5V153.421V130.921H113H120.5V127.921V124.921H113H105.5V63.4205V1.92052H103H100.5V91.9205ZM436.862 3.42052C435.495 6.98052 437.188 7.92052 444.969 7.92052H452.5V91.8785V175.837L444.75 176.129C437.228 176.412 437 176.495 437 178.921C437 181.407 437.059 181.423 447.25 181.706L457.5 181.991V91.9555V1.92052H447.469C439.474 1.92052 437.32 2.22552 436.862 3.42052ZM462.5 91.9205V182.054L465.25 181.737L468 181.421V91.9205V2.42052L465.25 2.10451L462.5 1.78752V91.9205ZM473.209 2.54451C472.819 2.93451 472.5 43.4535 472.5 92.5875V181.921H475.505H478.511L478.255 92.1705C478.001 2.67551 477.994 2.41952 475.959 2.12852C474.836 1.96752 473.599 2.15551 473.209 2.54451ZM482.961 3.17052C482.698 3.85852 482.6 44.2455 482.742 92.9205L483 181.421L485.75 181.737L488.5 182.054V91.9865V1.92052H485.969C484.576 1.92052 483.223 2.48352 482.961 3.17052ZM493.5 91.9555V181.991L503.75 181.706C513.941 181.423 514 181.407 514 178.921C514 176.495 513.772 176.412 506.25 176.129L498.5 175.837V88.8785V1.92052H496H493.5V91.9555ZM37.021 64.1765C14.869 100.855 0.0329961 126.412 0.0209961 127.914L0 130.421L34.75 130.684L69.5 130.947V153.392V175.837L61.75 176.129C54.228 176.412 54 176.495 54 178.921C54 181.407 54.059 181.423 64.25 181.706L74.5 181.991V92.4555C74.5 43.2115 74.387 2.92652 74.25 2.93352C74.113 2.94052 57.359 30.4995 37.021 64.1765ZM225.5 47.4205V83.2945L228.5 80.4205L231.5 77.5465V47.4205V17.2945L228.5 14.4205L225.5 11.5465V47.4205ZM69.5 72.9205V124.921H38.5C21.45 124.921 7.5 124.658 7.5 124.336C7.5 123.572 68.697 20.9205 69.152 20.9205C69.343 20.9205 69.5 44.3205 69.5 72.9205ZM235.665 47.9205L235.669 71.4205L237.632 67.1475C242.286 57.0205 242.237 38.5105 237.528 28.4205L235.662 24.4205L235.665 47.9205ZM323.741 105.83C296.108 147.075 273.5 181.098 273.5 181.435C273.5 181.772 274.911 181.907 276.636 181.734C279.591 181.439 282.585 177.224 328.263 109.056C376.581 36.9475 376.749 36.6795 375.368 33.7635L373.982 30.8375L323.741 105.83ZM331.701 112.421L285.403 181.421L288.547 181.742C290.277 181.918 291.803 181.918 291.938 181.742C292.073 181.565 311.731 152.171 335.623 116.421C377.985 53.0335 379.05 51.3215 378.531 47.4205C378.001 43.4315 377.875 43.6065 331.701 112.421ZM338.25 120.767C316.387 153.586 298.5 180.772 298.5 181.18C298.5 181.587 319.005 181.921 344.066 181.921H389.633L389.316 179.171L389 176.421L348.706 175.921L308.412 175.421L341.398 126.269C369.653 84.1645 374.691 76.1015 376.532 70.0405C377.714 66.1485 378.528 62.5445 378.341 62.0305C378.153 61.5165 360.113 87.9475 338.25 120.767ZM225.5 130.951V175.981L228.5 173.763L231.5 171.545V130.348V89.1505L229.035 87.5355C227.68 86.6475 226.33 85.9205 226.035 85.9205C225.741 85.9205 225.5 106.184 225.5 130.951ZM235.5 130.421C235.5 152.183 235.874 166.921 236.427 166.921C236.938 166.921 238.288 165.735 239.427 164.286C241.423 161.749 241.5 160.498 241.5 130.691C241.5 100.993 241.416 99.6105 239.432 96.8245C238.294 95.2275 236.944 93.9205 236.432 93.9205C235.873 93.9205 235.5 108.532 235.5 130.421ZM245.532 130.23C245.513 143.62 245.874 152.808 246.406 152.479C248.206 151.367 250.605 142.254 251.183 134.335C251.821 125.611 249.688 112.869 246.995 109.312C245.739 107.653 245.56 110.224 245.532 130.23Z" fill="white"/>
</svg>
